<svg xmlns="http://www.w3.org/2000/svg" xmlns:xlink="http://www.w3.org/1999/xlink" contentStyleType="text/css" height="571px" preserveAspectRatio="none" style="width:2983px;height:571px;background:#FFFFFF;" version="1.1" viewBox="0 0 2983 571" width="2983px" zoomAndPan="magnify"><defs/><g><!--class ProductControllerInterface--><g id="elem_ProductControllerInterface"><rect codeLine="1" fill="#F1F1F1" height="178.375" id="ProductControllerInterface" rx="2.5" ry="2.5" style="stroke:#181818;stroke-width:0.5;" width="348.5332" x="1131" y="7"/><ellipse cx="1208.2358" cy="23" fill="#B4A7E5" rx="11" ry="11" style="stroke:#181818;stroke-width:1;"/><path d="M1204.1577,18.7656 L1204.1577,16.6094 L1211.5483,16.6094 L1211.5483,18.7656 L1209.0796,18.7656 L1209.0796,26.8438 L1211.5483,26.8438 L1211.5483,29 L1204.1577,29 L1204.1577,26.8438 L1206.6265,26.8438 L1206.6265,18.7656 L1204.1577,18.7656 Z " fill="#000000"/><text fill="#000000" font-family="sans-serif" font-size="14" font-style="italic" lengthAdjust="spacing" textLength="185.5615" x="1228.7358" y="27.8467">ProductControllerInterface</text><line style="stroke:#181818;stroke-width:0.5;" x1="1132" x2="1478.5332" y1="39" y2="39"/><line style="stroke:#181818;stroke-width:0.5;" x1="1132" x2="1478.5332" y1="47" y2="47"/><ellipse cx="1142" cy="60.6484" fill="#84BE84" rx="3" ry="3" style="stroke:#038048;stroke-width:1;"/><text fill="#000000" font-family="sans-serif" font-size="14" lengthAdjust="spacing" textLength="288.8389" x="1151" y="63.9951">create(input: CreateInput): ProductModel</text><ellipse cx="1142" cy="76.9453" fill="#84BE84" rx="3" ry="3" style="stroke:#038048;stroke-width:1;"/><text fill="#000000" font-family="sans-serif" font-size="14" lengthAdjust="spacing" textLength="266.6904" x="1151" y="80.292">read(uuid: string): ProductModel | null</text><ellipse cx="1142" cy="93.2422" fill="#84BE84" rx="3" ry="3" style="stroke:#038048;stroke-width:1;"/><text fill="#000000" font-family="sans-serif" font-size="14" lengthAdjust="spacing" textLength="147.3213" x="1151" y="96.5889">list(): ProductModel[]</text><ellipse cx="1142" cy="109.5391" fill="#84BE84" rx="3" ry="3" style="stroke:#038048;stroke-width:1;"/><text fill="#000000" font-family="sans-serif" font-size="14" lengthAdjust="spacing" textLength="114.2285" x="1151" y="112.8857">count(): number</text><ellipse cx="1142" cy="125.8359" fill="#84BE84" rx="3" ry="3" style="stroke:#038048;stroke-width:1;"/><text fill="#000000" font-family="sans-serif" font-size="14" lengthAdjust="spacing" textLength="297.2949" x="1151" y="129.1826">update(input: UpdateInput): ProductModel</text><ellipse cx="1142" cy="142.1328" fill="#84BE84" rx="3" ry="3" style="stroke:#038048;stroke-width:1;"/><text fill="#000000" font-family="sans-serif" font-size="14" lengthAdjust="spacing" textLength="275.8711" x="1151" y="145.4795">patch(input: PatchInput): ProductModel</text><ellipse cx="1142" cy="158.4297" fill="#84BE84" rx="3" ry="3" style="stroke:#038048;stroke-width:1;"/><text fill="#000000" font-family="sans-serif" font-size="14" lengthAdjust="spacing" textLength="200.0469" x="1151" y="161.7764">delete(uuid: string): boolean</text><ellipse cx="1142" cy="174.7266" fill="#84BE84" rx="3" ry="3" style="stroke:#038048;stroke-width:1;"/><text fill="#000000" font-family="sans-serif" font-size="14" lengthAdjust="spacing" textLength="322.5332" x="1151" y="178.0732">searchByName(query: string): ProductModel[]</text></g><!--class ProductController--><g id="elem_ProductController"><rect codeLine="12" fill="#F1F1F1" height="194.6719" id="ProductController" rx="2.5" ry="2.5" style="stroke:#181818;stroke-width:0.5;" width="348.5332" x="1131" y="245"/><ellipse cx="1239.5752" cy="261" fill="#ADD1B2" rx="11" ry="11" style="stroke:#181818;stroke-width:1;"/><path d="M1242.5439,266.6406 Q1241.9658,266.9375 1241.3252,267.0781 Q1240.6846,267.2344 1239.9814,267.2344 Q1237.4814,267.2344 1236.1533,265.5938 Q1234.8408,263.9375 1234.8408,260.8125 Q1234.8408,257.6875 1236.1533,256.0313 Q1237.4814,254.375 1239.9814,254.375 Q1240.6846,254.375 1241.3252,254.5313 Q1241.9814,254.6875 1242.5439,254.9844 L1242.5439,257.7031 Q1241.9189,257.125 1241.3252,256.8594 Q1240.7314,256.5781 1240.1064,256.5781 Q1238.7627,256.5781 1238.0752,257.6563 Q1237.3877,258.7188 1237.3877,260.8125 Q1237.3877,262.9063 1238.0752,263.9844 Q1238.7627,265.0469 1240.1064,265.0469 Q1240.7314,265.0469 1241.3252,264.7813 Q1241.9189,264.5 1242.5439,263.9219 L1242.5439,266.6406 Z " fill="#000000"/><text fill="#000000" font-family="sans-serif" font-size="14" lengthAdjust="spacing" textLength="122.8828" x="1260.0752" y="265.8467">ProductController</text><line style="stroke:#181818;stroke-width:0.5;" x1="1132" x2="1478.5332" y1="277" y2="277"/><rect fill="none" height="6" style="stroke:#C82930;stroke-width:1;" width="6" x="1139" y="287.6484"/><text fill="#000000" font-family="sans-serif" font-size="14" lengthAdjust="spacing" textLength="143.917" x="1151" y="293.9951">container: Container</text><line style="stroke:#181818;stroke-width:0.5;" x1="1132" x2="1478.5332" y1="301.2969" y2="301.2969"/><ellipse cx="1142" cy="314.9453" fill="#84BE84" rx="3" ry="3" style="stroke:#038048;stroke-width:1;"/><text fill="#000000" font-family="sans-serif" font-size="14" lengthAdjust="spacing" textLength="288.8389" x="1151" y="318.292">create(input: CreateInput): ProductModel</text><ellipse cx="1142" cy="331.2422" fill="#84BE84" rx="3" ry="3" style="stroke:#038048;stroke-width:1;"/><text fill="#000000" font-family="sans-serif" font-size="14" lengthAdjust="spacing" textLength="266.6904" x="1151" y="334.5889">read(uuid: string): ProductModel | null</text><ellipse cx="1142" cy="347.5391" fill="#84BE84" rx="3" ry="3" style="stroke:#038048;stroke-width:1;"/><text fill="#000000" font-family="sans-serif" font-size="14" lengthAdjust="spacing" textLength="147.3213" x="1151" y="350.8857">list(): ProductModel[]</text><ellipse cx="1142" cy="363.8359" fill="#84BE84" rx="3" ry="3" style="stroke:#038048;stroke-width:1;"/><text fill="#000000" font-family="sans-serif" font-size="14" lengthAdjust="spacing" textLength="114.2285" x="1151" y="367.1826">count(): number</text><ellipse cx="1142" cy="380.1328" fill="#84BE84" rx="3" ry="3" style="stroke:#038048;stroke-width:1;"/><text fill="#000000" font-family="sans-serif" font-size="14" lengthAdjust="spacing" textLength="297.2949" x="1151" y="383.4795">update(input: UpdateInput): ProductModel</text><ellipse cx="1142" cy="396.4297" fill="#84BE84" rx="3" ry="3" style="stroke:#038048;stroke-width:1;"/><text fill="#000000" font-family="sans-serif" font-size="14" lengthAdjust="spacing" textLength="275.8711" x="1151" y="399.7764">patch(input: PatchInput): ProductModel</text><ellipse cx="1142" cy="412.7266" fill="#84BE84" rx="3" ry="3" style="stroke:#038048;stroke-width:1;"/><text fill="#000000" font-family="sans-serif" font-size="14" lengthAdjust="spacing" textLength="200.0469" x="1151" y="416.0732">delete(uuid: string): boolean</text><ellipse cx="1142" cy="429.0234" fill="#84BE84" rx="3" ry="3" style="stroke:#038048;stroke-width:1;"/><text fill="#000000" font-family="sans-serif" font-size="14" lengthAdjust="spacing" textLength="322.5332" x="1151" y="432.3701">searchByName(query: string): ProductModel[]</text></g><!--class Container--><g id="elem_Container"><rect codeLine="24" fill="#F1F1F1" height="64.2969" id="Container" rx="2.5" ry="2.5" style="stroke:#181818;stroke-width:0.5;" width="226.7305" x="7" y="500"/><ellipse cx="81.9082" cy="516" fill="#ADD1B2" rx="11" ry="11" style="stroke:#181818;stroke-width:1;"/><path d="M84.877,521.6406 Q84.2988,521.9375 83.6582,522.0781 Q83.0176,522.2344 82.3145,522.2344 Q79.8145,522.2344 78.4863,520.5938 Q77.1738,518.9375 77.1738,515.8125 Q77.1738,512.6875 78.4863,511.0313 Q79.8145,509.375 82.3145,509.375 Q83.0176,509.375 83.6582,509.5313 Q84.3145,509.6875 84.877,509.9844 L84.877,512.7031 Q84.252,512.125 83.6582,511.8594 Q83.0645,511.5781 82.4395,511.5781 Q81.0957,511.5781 80.4082,512.6563 Q79.7207,513.7188 79.7207,515.8125 Q79.7207,517.9063 80.4082,518.9844 Q81.0957,520.0469 82.4395,520.0469 Q83.0645,520.0469 83.6582,519.7813 Q84.252,519.5 84.877,518.9219 L84.877,521.6406 Z " fill="#000000"/><text fill="#000000" font-family="sans-serif" font-size="14" lengthAdjust="spacing" textLength="68.4141" x="102.4082" y="520.8467">Container</text><line style="stroke:#181818;stroke-width:0.5;" x1="8" x2="232.7305" y1="532" y2="532"/><line style="stroke:#181818;stroke-width:0.5;" x1="8" x2="232.7305" y1="540" y2="540"/><ellipse cx="18" cy="553.6484" fill="#84BE84" rx="3" ry="3" style="stroke:#038048;stroke-width:1;"/><text fill="#000000" font-family="sans-serif" font-size="14" lengthAdjust="spacing" textLength="200.7305" x="27" y="556.9951">resolve&lt;T&gt;(name: string): T</text></g><!--class CreateService--><g id="elem_CreateService"><rect codeLine="28" fill="#F1F1F1" height="64.2969" id="CreateService" rx="2.5" ry="2.5" style="stroke:#181818;stroke-width:0.5;" width="326.2754" x="269.5" y="500"/><ellipse cx="379.104" cy="516" fill="#ADD1B2" rx="11" ry="11" style="stroke:#181818;stroke-width:1;"/><path d="M382.0728,521.6406 Q381.4946,521.9375 380.854,522.0781 Q380.2134,522.2344 379.5103,522.2344 Q377.0103,522.2344 375.6821,520.5938 Q374.3696,518.9375 374.3696,515.8125 Q374.3696,512.6875 375.6821,511.0313 Q377.0103,509.375 379.5103,509.375 Q380.2134,509.375 380.854,509.5313 Q381.5103,509.6875 382.0728,509.9844 L382.0728,512.7031 Q381.4478,512.125 380.854,511.8594 Q380.2603,511.5781 379.6353,511.5781 Q378.2915,511.5781 377.604,512.6563 Q376.9165,513.7188 376.9165,515.8125 Q376.9165,517.9063 377.604,518.9844 Q378.2915,520.0469 379.6353,520.0469 Q380.2603,520.0469 380.854,519.7813 Q381.4478,519.5 382.0728,518.9219 L382.0728,521.6406 Z " fill="#000000"/><text fill="#000000" font-family="sans-serif" font-size="14" lengthAdjust="spacing" textLength="98.5674" x="399.604" y="520.8467">CreateService</text><line style="stroke:#181818;stroke-width:0.5;" x1="270.5" x2="594.7754" y1="532" y2="532"/><line style="stroke:#181818;stroke-width:0.5;" x1="270.5" x2="594.7754" y1="540" y2="540"/><ellipse cx="280.5" cy="553.6484" fill="#84BE84" rx="3" ry="3" style="stroke:#038048;stroke-width:1;"/><text fill="#000000" font-family="sans-serif" font-size="14" lengthAdjust="spacing" textLength="300.2754" x="289.5" y="556.9951">execute(input: CreateInput): ProductModel</text></g><!--class ReadService--><g id="elem_ReadService"><rect codeLine="32" fill="#F1F1F1" height="64.2969" id="ReadService" rx="2.5" ry="2.5" style="stroke:#181818;stroke-width:0.5;" width="317.04" x="631" y="500"/><ellipse cx="741.4961" cy="516" fill="#ADD1B2" rx="11" ry="11" style="stroke:#181818;stroke-width:1;"/><path d="M744.4648,521.6406 Q743.8867,521.9375 743.2461,522.0781 Q742.6055,522.2344 741.9023,522.2344 Q739.4023,522.2344 738.0742,520.5938 Q736.7617,518.9375 736.7617,515.8125 Q736.7617,512.6875 738.0742,511.0313 Q739.4023,509.375 741.9023,509.375 Q742.6055,509.375 743.2461,509.5313 Q743.9023,509.6875 744.4648,509.9844 L744.4648,512.7031 Q743.8398,512.125 743.2461,511.8594 Q742.6523,511.5781 742.0273,511.5781 Q740.6836,511.5781 739.9961,512.6563 Q739.3086,513.7188 739.3086,515.8125 Q739.3086,517.9063 739.9961,518.9844 Q740.6836,520.0469 742.0273,520.0469 Q742.6523,520.0469 743.2461,519.7813 Q743.8398,519.5 744.4648,518.9219 L744.4648,521.6406 Z " fill="#000000"/><text fill="#000000" font-family="sans-serif" font-size="14" lengthAdjust="spacing" textLength="87.5479" x="761.9961" y="520.8467">ReadService</text><line style="stroke:#181818;stroke-width:0.5;" x1="632" x2="947.04" y1="532" y2="532"/><line style="stroke:#181818;stroke-width:0.5;" x1="632" x2="947.04" y1="540" y2="540"/><ellipse cx="642" cy="553.6484" fill="#84BE84" rx="3" ry="3" style="stroke:#038048;stroke-width:1;"/><text fill="#000000" font-family="sans-serif" font-size="14" lengthAdjust="spacing" textLength="291.04" x="651" y="556.9951">execute(uuid: string): ProductModel | null</text></g><!--class ListService--><g id="elem_ListService"><rect codeLine="36" fill="#F1F1F1" height="64.2969" id="ListService" rx="2.5" ry="2.5" style="stroke:#181818;stroke-width:0.5;" width="208.9434" x="983" y="500"/><ellipse cx="1045.1147" cy="516" fill="#ADD1B2" rx="11" ry="11" style="stroke:#181818;stroke-width:1;"/><path d="M1048.0835,521.6406 Q1047.5054,521.9375 1046.8647,522.0781 Q1046.2241,522.2344 1045.521,522.2344 Q1043.021,522.2344 1041.6929,520.5938 Q1040.3804,518.9375 1040.3804,515.8125 Q1040.3804,512.6875 1041.6929,511.0313 Q1043.021,509.375 1045.521,509.375 Q1046.2241,509.375 1046.8647,509.5313 Q1047.521,509.6875 1048.0835,509.9844 L1048.0835,512.7031 Q1047.4585,512.125 1046.8647,511.8594 Q1046.271,511.5781 1045.646,511.5781 Q1044.3022,511.5781 1043.6147,512.6563 Q1042.9272,513.7188 1042.9272,515.8125 Q1042.9272,517.9063 1043.6147,518.9844 Q1044.3022,520.0469 1045.646,520.0469 Q1046.271,520.0469 1046.8647,519.7813 Q1047.4585,519.5 1048.0835,518.9219 L1048.0835,521.6406 Z " fill="#000000"/><text fill="#000000" font-family="sans-serif" font-size="14" lengthAdjust="spacing" textLength="76.2139" x="1065.6147" y="520.8467">ListService</text><line style="stroke:#181818;stroke-width:0.5;" x1="984" x2="1190.9434" y1="532" y2="532"/><line style="stroke:#181818;stroke-width:0.5;" x1="984" x2="1190.9434" y1="540" y2="540"/><ellipse cx="994" cy="553.6484" fill="#84BE84" rx="3" ry="3" style="stroke:#038048;stroke-width:1;"/><text fill="#000000" font-family="sans-serif" font-size="14" lengthAdjust="spacing" textLength="182.9434" x="1003" y="556.9951">execute(): ProductModel[]</text></g><!--class CountService--><g id="elem_CountService"><rect codeLine="40" fill="#F1F1F1" height="64.2969" id="CountService" rx="2.5" ry="2.5" style="stroke:#181818;stroke-width:0.5;" width="156.915" x="1227" y="500"/><ellipse cx="1256.2189" cy="516" fill="#ADD1B2" rx="11" ry="11" style="stroke:#181818;stroke-width:1;"/><path d="M1259.1877,521.6406 Q1258.6096,521.9375 1257.9689,522.0781 Q1257.3283,522.2344 1256.6252,522.2344 Q1254.1252,522.2344 1252.7971,520.5938 Q1251.4846,518.9375 1251.4846,515.8125 Q1251.4846,512.6875 1252.7971,511.0313 Q1254.1252,509.375 1256.6252,509.375 Q1257.3283,509.375 1257.9689,509.5313 Q1258.6252,509.6875 1259.1877,509.9844 L1259.1877,512.7031 Q1258.5627,512.125 1257.9689,511.8594 Q1257.3752,511.5781 1256.7502,511.5781 Q1255.4064,511.5781 1254.7189,512.6563 Q1254.0314,513.7188 1254.0314,515.8125 Q1254.0314,517.9063 1254.7189,518.9844 Q1255.4064,520.0469 1256.7502,520.0469 Q1257.3752,520.0469 1257.9689,519.7813 Q1258.5627,519.5 1259.1877,518.9219 L1259.1877,521.6406 Z " fill="#000000"/><text fill="#000000" font-family="sans-serif" font-size="14" lengthAdjust="spacing" textLength="93.3174" x="1273.3787" y="520.8467">CountService</text><line style="stroke:#181818;stroke-width:0.5;" x1="1228" x2="1382.915" y1="532" y2="532"/><line style="stroke:#181818;stroke-width:0.5;" x1="1228" x2="1382.915" y1="540" y2="540"/><ellipse cx="1238" cy="553.6484" fill="#84BE84" rx="3" ry="3" style="stroke:#038048;stroke-width:1;"/><text fill="#000000" font-family="sans-serif" font-size="14" lengthAdjust="spacing" textLength="130.915" x="1247" y="556.9951">execute(): number</text></g><!--class UpdateService--><g id="elem_UpdateService"><rect codeLine="44" fill="#F1F1F1" height="64.2969" id="UpdateService" rx="2.5" ry="2.5" style="stroke:#181818;stroke-width:0.5;" width="418.9297" x="1419" y="500"/><ellipse cx="1572.9932" cy="516" fill="#ADD1B2" rx="11" ry="11" style="stroke:#181818;stroke-width:1;"/><path d="M1575.9619,521.6406 Q1575.3838,521.9375 1574.7432,522.0781 Q1574.1025,522.2344 1573.3994,522.2344 Q1570.8994,522.2344 1569.5713,520.5938 Q1568.2588,518.9375 1568.2588,515.8125 Q1568.2588,512.6875 1569.5713,511.0313 Q1570.8994,509.375 1573.3994,509.375 Q1574.1025,509.375 1574.7432,509.5313 Q1575.3994,509.6875 1575.9619,509.9844 L1575.9619,512.7031 Q1575.3369,512.125 1574.7432,511.8594 Q1574.1494,511.5781 1573.5244,511.5781 Q1572.1807,511.5781 1571.4932,512.6563 Q1570.8057,513.7188 1570.8057,515.8125 Q1570.8057,517.9063 1571.4932,518.9844 Q1572.1807,520.0469 1573.5244,520.0469 Q1574.1494,520.0469 1574.7432,519.7813 Q1575.3369,519.5 1575.9619,518.9219 L1575.9619,521.6406 Z " fill="#000000"/><text fill="#000000" font-family="sans-serif" font-size="14" lengthAdjust="spacing" textLength="102.4434" x="1593.4932" y="520.8467">UpdateService</text><line style="stroke:#181818;stroke-width:0.5;" x1="1420" x2="1836.9297" y1="532" y2="532"/><line style="stroke:#181818;stroke-width:0.5;" x1="1420" x2="1836.9297" y1="540" y2="540"/><ellipse cx="1430" cy="553.6484" fill="#84BE84" rx="3" ry="3" style="stroke:#038048;stroke-width:1;"/><text fill="#000000" font-family="sans-serif" font-size="14" lengthAdjust="spacing" textLength="392.9297" x="1439" y="556.9951">execute(uuid: string, input: UpdateInput): ProductModel</text></g><!--class PatchService--><g id="elem_PatchService"><rect codeLine="48" fill="#F1F1F1" height="64.2969" id="PatchService" rx="2.5" ry="2.5" style="stroke:#181818;stroke-width:0.5;" width="407.3086" x="1873" y="500"/><ellipse cx="2026.9932" cy="516" fill="#ADD1B2" rx="11" ry="11" style="stroke:#181818;stroke-width:1;"/><path d="M2029.9619,521.6406 Q2029.3838,521.9375 2028.7432,522.0781 Q2028.1025,522.2344 2027.3994,522.2344 Q2024.8994,522.2344 2023.5713,520.5938 Q2022.2588,518.9375 2022.2588,515.8125 Q2022.2588,512.6875 2023.5713,511.0313 Q2024.8994,509.375 2027.3994,509.375 Q2028.1025,509.375 2028.7432,509.5313 Q2029.3994,509.6875 2029.9619,509.9844 L2029.9619,512.7031 Q2029.3369,512.125 2028.7432,511.8594 Q2028.1494,511.5781 2027.5244,511.5781 Q2026.1807,511.5781 2025.4932,512.6563 Q2024.8057,513.7188 2024.8057,515.8125 Q2024.8057,517.9063 2025.4932,518.9844 Q2026.1807,520.0469 2027.5244,520.0469 Q2028.1494,520.0469 2028.7432,519.7813 Q2029.3369,519.5 2029.9619,518.9219 L2029.9619,521.6406 Z " fill="#000000"/><text fill="#000000" font-family="sans-serif" font-size="14" lengthAdjust="spacing" textLength="90.8223" x="2047.4932" y="520.8467">PatchService</text><line style="stroke:#181818;stroke-width:0.5;" x1="1874" x2="2279.3086" y1="532" y2="532"/><line style="stroke:#181818;stroke-width:0.5;" x1="1874" x2="2279.3086" y1="540" y2="540"/><ellipse cx="1884" cy="553.6484" fill="#84BE84" rx="3" ry="3" style="stroke:#038048;stroke-width:1;"/><text fill="#000000" font-family="sans-serif" font-size="14" lengthAdjust="spacing" textLength="381.3086" x="1893" y="556.9951">execute(uuid: string, input: PatchInput): ProductModel</text></g><!--class DeleteService--><g id="elem_DeleteService"><rect codeLine="52" fill="#F1F1F1" height="64.2969" id="DeleteService" rx="2.5" ry="2.5" style="stroke:#181818;stroke-width:0.5;" width="238.126" x="2315.5" y="500"/><ellipse cx="2381.4429" cy="516" fill="#ADD1B2" rx="11" ry="11" style="stroke:#181818;stroke-width:1;"/><path d="M2384.4116,521.6406 Q2383.8335,521.9375 2383.1929,522.0781 Q2382.5522,522.2344 2381.8491,522.2344 Q2379.3491,522.2344 2378.021,520.5938 Q2376.7085,518.9375 2376.7085,515.8125 Q2376.7085,512.6875 2378.021,511.0313 Q2379.3491,509.375 2381.8491,509.375 Q2382.5522,509.375 2383.1929,509.5313 Q2383.8491,509.6875 2384.4116,509.9844 L2384.4116,512.7031 Q2383.7866,512.125 2383.1929,511.8594 Q2382.5991,511.5781 2381.9741,511.5781 Q2380.6304,511.5781 2379.9429,512.6563 Q2379.2554,513.7188 2379.2554,515.8125 Q2379.2554,517.9063 2379.9429,518.9844 Q2380.6304,520.0469 2381.9741,520.0469 Q2382.5991,520.0469 2383.1929,519.7813 Q2383.7866,519.5 2384.4116,518.9219 L2384.4116,521.6406 Z " fill="#000000"/><text fill="#000000" font-family="sans-serif" font-size="14" lengthAdjust="spacing" textLength="97.7402" x="2401.9429" y="520.8467">DeleteService</text><line style="stroke:#181818;stroke-width:0.5;" x1="2316.5" x2="2552.626" y1="532" y2="532"/><line style="stroke:#181818;stroke-width:0.5;" x1="2316.5" x2="2552.626" y1="540" y2="540"/><ellipse cx="2326.5" cy="553.6484" fill="#84BE84" rx="3" ry="3" style="stroke:#038048;stroke-width:1;"/><text fill="#000000" font-family="sans-serif" font-size="14" lengthAdjust="spacing" textLength="212.126" x="2335.5" y="556.9951">execute(uuid: string): boolean</text></g><!--class SearchService--><g id="elem_SearchService"><rect codeLine="56" fill="#F1F1F1" height="64.2969" id="SearchService" rx="2.5" ry="2.5" style="stroke:#181818;stroke-width:0.5;" width="387.1768" x="2589" y="500"/><ellipse cx="2728.2651" cy="516" fill="#ADD1B2" rx="11" ry="11" style="stroke:#181818;stroke-width:1;"/><path d="M2731.2339,521.6406 Q2730.6558,521.9375 2730.0151,522.0781 Q2729.3745,522.2344 2728.6714,522.2344 Q2726.1714,522.2344 2724.8433,520.5938 Q2723.5308,518.9375 2723.5308,515.8125 Q2723.5308,512.6875 2724.8433,511.0313 Q2726.1714,509.375 2728.6714,509.375 Q2729.3745,509.375 2730.0151,509.5313 Q2730.6714,509.6875 2731.2339,509.9844 L2731.2339,512.7031 Q2730.6089,512.125 2730.0151,511.8594 Q2729.4214,511.5781 2728.7964,511.5781 Q2727.4526,511.5781 2726.7651,512.6563 Q2726.0776,513.7188 2726.0776,515.8125 Q2726.0776,517.9063 2726.7651,518.9844 Q2727.4526,520.0469 2728.7964,520.0469 Q2729.4214,520.0469 2730.0151,519.7813 Q2730.6089,519.5 2731.2339,518.9219 L2731.2339,521.6406 Z " fill="#000000"/><text fill="#000000" font-family="sans-serif" font-size="14" lengthAdjust="spacing" textLength="100.1465" x="2748.7651" y="520.8467">SearchService</text><line style="stroke:#181818;stroke-width:0.5;" x1="2590" x2="2975.1768" y1="532" y2="532"/><line style="stroke:#181818;stroke-width:0.5;" x1="2590" x2="2975.1768" y1="540" y2="540"/><ellipse cx="2600" cy="553.6484" fill="#84BE84" rx="3" ry="3" style="stroke:#038048;stroke-width:1;"/><text fill="#000000" font-family="sans-serif" font-size="14" lengthAdjust="spacing" textLength="361.1768" x="2609" y="556.9951">execute(field: string, query: string): ProductModel[]</text></g><!--reverse link ProductControllerInterface to ProductController--><g id="link_ProductControllerInterface_ProductController"><path codeLine="60" d="M1305.5,203.27 C1305.5,222.56 1305.5,225.07 1305.5,244.67 " fill="none" id="ProductControllerInterface-backto-ProductController" style="stroke:#181818;stroke-width:1;stroke-dasharray:7.0,7.0;"/><polygon fill="none" points="1305.5,185.27,1299.5,203.27,1311.5,203.27,1305.5,185.27" style="stroke:#181818;stroke-width:1;"/></g><!--link ProductController to Container--><g id="link_ProductController_Container"><path codeLine="61" d="M1130.82,364.82 C921.12,391.47 559.2,440.86 251.5,500 C245.88,501.08 246.0031,501.0126 240.2131,502.2226 " fill="none" id="ProductController-to-Container" style="stroke:#181818;stroke-width:1;"/><polygon fill="#181818" points="234.34,503.45,243.9679,505.5244,239.2343,502.4272,242.3314,497.6935,234.34,503.45" style="stroke:#181818;stroke-width:1;"/></g><!--link ProductController to CreateService--><g id="link_ProductController_CreateService"><path codeLine="62" d="M1130.93,380.99 C968.47,415.89 735.0562,466.02 582.9962,498.68 " fill="none" id="ProductController-to-CreateService" style="stroke:#181818;stroke-width:1;"/><polygon fill="#181818" points="577.13,499.94,586.7693,501.9609,582.0185,498.89,585.0893,494.1392,577.13,499.94" style="stroke:#181818;stroke-width:1;"/></g><!--link ProductController to ReadService--><g id="link_ProductController_ReadService"><path codeLine="63" d="M1130.81,406.98 C1044.56,438.32 950.0293,472.671 880.6193,497.891 " fill="none" id="ProductController-to-ReadService" style="stroke:#181818;stroke-width:1;"/><polygon fill="#181818" points="874.98,499.94,884.8049,500.626,879.6794,498.2325,882.0729,493.1069,874.98,499.94" style="stroke:#181818;stroke-width:1;"/></g><!--link ProductController to ListService--><g id="link_ProductController_ListService"><path codeLine="64" d="M1192.99,440.27 C1167.79,461.94 1147.3977,479.4761 1128.0977,496.0861 " fill="none" id="ProductController-to-ListService" style="stroke:#181818;stroke-width:1;"/><polygon fill="#181818" points="1123.55,500,1132.9808,497.161,1127.3398,496.7384,1127.7623,491.0974,1123.55,500" style="stroke:#181818;stroke-width:1;"/></g><!--link ProductController to CountService--><g id="link_ProductController_CountService"><path codeLine="65" d="M1305.5,440.27 C1305.5,461.94 1305.5,477.39 1305.5,494 " fill="none" id="ProductController-to-CountService" style="stroke:#181818;stroke-width:1;"/><polygon fill="#181818" points="1305.5,500,1309.5,491,1305.5,495,1301.5,491,1305.5,500" style="stroke:#181818;stroke-width:1;"/></g><!--link ProductController to UpdateService--><g id="link_ProductController_UpdateService"><path codeLine="66" d="M1472.2,440.27 C1509.53,461.94 1541.3015,480.3767 1569.9015,496.9867 " fill="none" id="ProductController-to-UpdateService" style="stroke:#181818;stroke-width:1;"/><polygon fill="#181818" points="1575.09,500,1569.3162,492.0211,1570.7663,497.4889,1565.2985,498.939,1575.09,500" style="stroke:#181818;stroke-width:1;"/></g><!--link ProductController to PatchService--><g id="link_ProductController_PatchService"><path codeLine="67" d="M1480.45,386.05 C1622.96,420.7 1815.0099,467.4123 1942.9499,498.5223 " fill="none" id="ProductController-to-PatchService" style="stroke:#181818;stroke-width:1;"/><polygon fill="#181818" points="1948.78,499.94,1940.9799,493.9268,1943.9216,498.7586,1939.0897,501.7003,1948.78,499.94" style="stroke:#181818;stroke-width:1;"/></g><!--link ProductController to DeleteService--><g id="link_ProductController_DeleteService"><path codeLine="68" d="M1480.37,367.52 C1679.03,395.64 2012.61,445.36 2297.5,500 C2303.37,501.13 2303.4922,501.1153 2309.5422,502.3553 " fill="none" id="ProductController-to-DeleteService" style="stroke:#181818;stroke-width:1;"/><polygon fill="#181818" points="2315.42,503.56,2307.4064,497.8344,2310.5218,502.5561,2305.8001,505.6715,2315.42,503.56" style="stroke:#181818;stroke-width:1;"/></g><!--link ProductController to SearchService--><g id="link_ProductController_SearchService"><path codeLine="69" d="M1480.24,363.82 C1724.61,392.53 2182.22,447.35 2571.5,500 C2577.19,500.77 2577.0159,500.7429 2582.8359,501.5429 " fill="none" id="ProductController-to-SearchService" style="stroke:#181818;stroke-width:1;"/><polygon fill="#181818" points="2588.78,502.36,2580.4085,497.1717,2583.8266,501.6791,2579.3191,505.0971,2588.78,502.36" style="stroke:#181818;stroke-width:1;"/></g><!--SRC=[xLInJiCm4Dtp5Hw38Fs0gEf0MIe1gcYP48FhNAabrmwENL5H_Xqd9AwJwD8WCPB9btltSdVlnLmQq5lAW2oroYmpSoMDLaA0NlZKPqJSSqsO1ceWvZAt9YNpAbgKmLNQb3-e34GDT_aijfPdAIcCvlAj0oCd8greq88N9kuWNbwRBoihgwoq-mte-gtDiw2VvoeQw2UdXkqQzB8C1i3k18wxq_v6AG5KrfW2g6Qxs-CZtKFyRa4VaKdT75zHn0GjYlwUw_KcRaXfA9UWtMwRu__c_sxpVgdUq1eA9GumNSzYwPW2ZdLGLcrx1Vh0Wty1Fe3PKP9ueYUd2aOpGYpFS-_qmdW6ntTA3jJL0dlyZwfZ6huXburmzdyf_wzOSSDuqhlACoENsrZ9LwygDs7LMmuYQEgosmPkqkbfCkdV0FqAaYIpu190yg4n4KpWEGGHk0djusmS1DBo2e89XKSWBHaHJ4kiRm00]--></g></svg>